<?xml version="1.0" encoding="UTF-8"?>
<svg version="1.1" xmlns="http://www.w3.org/2000/svg" width="96" height="96">
<path d="M0 0 C4.7673223 0.11424955 8.03315747 0.24334063 11.875 3.25 C19.14483233 12.65801831 19.2562096 23.17110094 19.48291016 34.68041992 C19.64598752 39.45963872 20.26010522 42.91725569 23 47 C26.68774073 49.64750458 29.84633331 50.54947619 34.3125 51.1875 C35.91544922 51.42533203 35.91544922 51.42533203 37.55078125 51.66796875 C38.35902344 51.77753906 39.16726562 51.88710938 40 52 C39.93113718 46.23378485 39.84317701 40.46829581 39.73754883 34.70263672 C39.70430572 32.74145564 39.67627185 30.78017902 39.65356445 28.81884766 C39.62000719 25.99860953 39.56769101 23.17924635 39.51171875 20.359375 C39.50532883 19.48319519 39.4989389 18.60701538 39.49235535 17.70428467 C39.40704006 14.16761758 39.34449779 11.66353467 37.69848633 8.49316406 C35.12324586 6.22923267 32.28923222 5.74473182 29 5 C29 3.35 29 1.7 29 0 C41.54 0 54.08 0 67 0 C67 1.65 67 3.3 67 5 C66.44570312 5.18175781 65.89140625 5.36351562 65.3203125 5.55078125 C64.59585938 5.80214844 63.87140625 6.05351562 63.125 6.3125 C62.40570313 6.55613281 61.68640625 6.79976562 60.9453125 7.05078125 C58.66005095 7.96335547 58.66005095 7.96335547 57 11 C56.67508765 12.95520809 56.67508765 12.95520809 56.68115234 15.10424805 C56.66128265 15.92487228 56.64141296 16.74549652 56.62094116 17.59098816 C56.60361435 18.9129998 56.60361435 18.9129998 56.5859375 20.26171875 C56.56657135 21.16751175 56.5472052 22.07330475 56.5272522 23.00654602 C56.46746458 25.90010151 56.42107432 28.7936968 56.375 31.6875 C56.33681946 33.64910591 56.29776769 35.61069506 56.2578125 37.57226562 C56.16176368 42.3813744 56.07772957 47.19056166 56 52 C58.42299374 51.62931812 60.83499434 51.22988083 63.25 50.8125 C63.93191406 50.71130859 64.61382812 50.61011719 65.31640625 50.50585938 C68.9348875 49.85593799 70.80033014 49.19999191 73.421875 46.57421875 C75.43446136 43.29131179 76.11877123 40.71687823 76.24609375 36.9375 C76.27735352 36.14577393 76.30861328 35.35404785 76.34082031 34.53833008 C76.37272461 33.70068115 76.40462891 32.86303223 76.4375 32 C77.45350264 10.7419447 77.45350264 10.7419447 84 3 C87.89913614 -0.28348307 90.99736149 -0.29427285 96 0 C96.3125 2.8125 96.3125 2.8125 96 6 C93.5625 7.6875 93.5625 7.6875 91 9 C89.96442352 12.10672943 89.84575502 14.36908623 89.7890625 17.62890625 C89.76070313 18.74716797 89.73234375 19.86542969 89.703125 21.01757812 C89.65164754 23.35336792 89.60720468 25.68932494 89.5703125 28.02539062 C89.29210656 38.16251943 88.22752906 46.83664729 80.92578125 54.3046875 C73.37511768 60.95172196 65.58068281 60.44909451 56 60 C56.08084703 63.27184808 56.19368874 66.54182779 56.3125 69.8125 C56.34633789 71.2056543 56.34633789 71.2056543 56.38085938 72.62695312 C56.41630859 73.51962891 56.45175781 74.41230469 56.48828125 75.33203125 C56.52755737 76.56530151 56.52755737 76.56530151 56.56762695 77.82348633 C57.09200716 80.46315291 57.90787428 81.35600403 60 83 C62.03341887 83.77813652 62.03341887 83.77813652 64.1875 84.1875 C65.445625 84.455625 66.70375 84.72375 68 85 C68 86.65 68 88.3 68 90 C55.13 90 42.26 90 29 90 C29 88.35 29 86.7 29 85 C29.63808594 84.79503906 30.27617187 84.59007813 30.93359375 84.37890625 C31.75988281 84.10949219 32.58617187 83.84007813 33.4375 83.5625 C34.26121094 83.29566406 35.08492187 83.02882813 35.93359375 82.75390625 C37.96219588 82.17844506 37.96219588 82.17844506 39 81 C39.15686249 79.44051458 39.25076639 77.87457332 39.31640625 76.30859375 C39.37924805 74.89223633 39.37924805 74.89223633 39.44335938 73.44726562 C39.48267578 72.45404297 39.52199219 71.46082031 39.5625 70.4375 C39.62727539 68.94186523 39.62727539 68.94186523 39.69335938 67.41601562 C39.79980298 64.9441585 39.90181928 62.4721969 40 60 C39.01 60.04640625 38.02 60.0928125 37 60.140625 C28.26275753 60.43275165 21.85190981 60.27125529 15.07421875 54.3046875 C6.02789429 45.05233909 6.56833628 33.41990004 6.47265625 21.19335938 C6.43978516 19.52563477 6.43978516 19.52563477 6.40625 17.82421875 C6.39916016 16.82479248 6.39207031 15.82536621 6.38476562 14.7956543 C5.9333097 11.5154374 4.98963685 9.63170973 3 7 C2.01 6.67 1.02 6.34 0 6 C0 4.02 0 2.04 0 0 Z " fill="#06A8B0" transform="translate(0,3)"/>
</svg>
